Coordinates
version=1
nRows=10
nColumns=40
inDegrees=yes

Units are S.I. units (second, meters, Newtons, ...)
Angles are in degrees.

endheader
time	pelvis_tilt	pelvis_list	pelvis_rotation	pelvis_tx	pelvis_ty	pelvis_tz	hip_flexion_r	hip_adduction_r	hip_rotation_r	knee_angle_r	knee_angle_r_beta	ankle_angle_r	subtalar_angle_r	mtp_angle_r	hip_flexion_l	hip_adduction_l	hip_rotation_l	knee_angle_l	knee_angle_l_beta	ankle_angle_l	subtalar_angle_l	mtp_angle_l	lumbar_extension	lumbar_bending	lumbar_rotation	arm_flex_r	arm_add_r	arm_rot_r	elbow_flex_r	pro_sup_r	wrist_flex_r	wrist_dev_r	arm_flex_l	arm_add_l	arm_rot_l	elbow_flex_l	pro_sup_l	wrist_flex_l	wrist_dev_l
     21.67500000	     -5.30455750	     -4.68593312	      7.36997385	      0.80779284	      0.91886615	      0.48936442	      0.92928650	      4.46950996	    -16.27681867	     11.47489440	     11.47489440	     17.57172534	      1.83860415	     -3.52203533	     32.75859870	     -5.44684902	     -1.10888270	     19.95592193	     19.95592193	      5.80201857	     -7.09045954	      7.76542981	     -8.41275642	      5.75939727	      3.93641446	     41.89196191	    -16.85860320	     -4.36653582	     87.10583299	     44.70946552	      0.00000000	      0.00000000	    -11.38606099	     -6.39330543	     -1.42578650	     30.58587462	     45.06819863	      0.00000000	      0.00000000
     21.68821429	     -5.24649629	     -4.85579008	      7.29127892	      0.80955476	      0.91771912	      0.48816078	      0.17359621	      4.61510078	    -16.52164073	     11.31550430	     11.31550430	     18.18231239	      2.75402591	     -2.74995939	     32.28374579	     -5.52495498	     -0.95194637	     20.44893442	     20.44893442	      4.12618349	     -8.06743248	      5.36641929	     -8.25807751	      5.87858778	      3.76700131	     42.20661974	    -16.42130326	     -4.00713403	     86.62644044	     44.74905147	      0.00000000	      0.00000000	    -12.04758309	     -6.65139150	     -1.51293325	     32.77391333	     45.09965987	      0.00000000	      0.00000000
     21.70142857	     -5.33992111	     -4.91714669	      7.18832966	      0.81121654	      0.91658740	      0.48688566	     -0.28467721	      4.62206148	    -16.36092058	     11.37653088	     11.37653088	     18.50435139	      2.81975034	     -2.84498863	     31.96557446	     -5.53451751	     -1.00368441	     21.01480460	     21.01480460	      3.56332992	     -8.20655150	      5.47037007	     -7.97821884	      5.88957240	      3.82522803	     42.08657471	    -16.25979553	     -3.92838449	     86.58115608	     44.74840160	      0.00000000	      0.00000000	    -11.77617935	     -6.77280789	     -1.53422214	     32.88372779	     45.10783503	      0.00000000	      0.00000000
     21.71464286	     -5.31872592	     -5.07830025	      7.06319102	      0.81297865	      0.91543213	      0.48551001	     -0.83126649	      4.71013743	    -16.28706606	     11.50188223	     11.50188223	     18.75219282	      3.07563701	     -2.84692292	     31.90090828	     -5.60054048	     -0.57729097	     22.23910598	     22.23910598	      3.29091050	     -8.99531368	      5.21908056	     -7.80978135	      5.97436025	      4.02856743	     41.84336361	    -16.18158189	     -3.92019921	     86.28033626	     44.76221477	      0.00000000	      0.00000000	    -11.42835169	     -6.93010126	     -1.61455473	     33.22174137	     45.12961679	      0.00000000	      0.00000000
     21.72785714	     -5.37329146	     -5.13292825	      6.96735877	      0.81463668	      0.91452798	      0.48387885	     -1.23104414	      4.62732965	    -16.26377634	     11.76829352	     11.76829352	     19.02606506	      3.31222722	     -2.86067256	     31.74752820	     -5.50300559	     -0.11773824	     23.08730249	     23.08730249	      3.03541694	     -9.72862983	      5.07415937	     -7.61550697	      5.97859989	      4.14224655	     41.45682068	    -16.11234314	     -3.97030616	     85.89200538	     44.78138502	      0.00000000	      0.00000000	    -11.06756628	     -7.08933077	     -1.74330328	     33.67746986	     45.15920427	      0.00000000	      0.00000000
     21.74107143	     -5.38271435	     -5.06923857	      6.87138142	      0.81630887	      0.91402878	      0.48206983	     -1.70049849	      4.42287285	    -16.11766415	     12.00250408	     12.00250408	     19.19313604	      3.38423032	     -2.91783276	     31.45591804	     -5.32891073	      0.15339016	     23.76103477	     23.76103477	      3.09662363	    -10.07251758	      4.94651410	     -7.53513867	      5.87288146	      4.08710100	     40.87277881	    -15.87531298	     -3.86658139	     85.64444635	     44.78486854	      0.00000000	      0.00000000	    -10.55399444	     -7.26679013	     -1.80171260	     33.93412017	     45.17611002	      0.00000000	      0.00000000
     21.75428571	     -5.48479161	     -5.00112279	      6.78234479	      0.81771301	      0.91351368	      0.47990615	     -1.78770472	      4.04332330	    -16.32611316	     12.78806439	     12.78806439	     19.47320831	      3.75954388	     -2.96440091	     31.41924572	     -4.95039342	      1.02313004	     24.62111761	     24.62111761	      3.09294256	    -11.61861332	      5.22186704	     -7.37426033	      5.76128858	      4.26203261	     40.26275209	    -15.93757218	     -4.31725022	     84.70337925	     44.84110265	      0.00000000	      0.00000000	    -10.22272396	     -7.41141569	     -2.19549848	     34.78484563	     45.24723767	      0.00000000	      0.00000000
     21.76750000	     -5.51876358	     -4.93478220	      6.71233282	      0.81916831	      0.91335716	      0.47759579	     -2.02711899	      3.71273606	    -16.35142241	     13.38939743	     13.38939743	     19.59687651	      3.90294431	     -3.04636979	     31.31436767	     -4.65892004	      1.58007263	     25.47838711	     25.47838711	      3.48775144	    -12.49946021	      5.35233922	     -7.30705958	      5.73276792	      4.34929296	     39.54505777	    -15.93319613	     -4.49016372	     83.94376835	     44.87596973	      0.00000000	      0.00000000	     -9.69380549	     -7.54299060	     -2.45846104	     35.29816381	     45.29711795	      0.00000000	      0.00000000
     21.78071429	     -5.55433964	     -4.77795014	      6.62402000	      0.82058144	      0.91348574	      0.47508223	     -2.20104697	      3.23313673	    -16.41893880	     14.12793292	     14.12793292	     19.67400901	      4.09471924	     -3.20156051	     31.12929332	     -4.25839366	      2.11133112	     26.20093462	     26.20093462	      4.01951580	    -13.46240733	      5.81317681	     -7.27326165	      5.60380947	      4.45377083	     38.67730670	    -15.95442702	     -4.77696029	     82.92068888	     44.92316179	      0.00000000	      0.00000000	     -9.12727398	     -7.66669278	     -2.79806678	     35.88352724	     45.35769691	      0.00000000	      0.00000000
     21.79392857	     -5.47374568	     -4.66593402	      6.56860890	      0.82213894	      0.91400402	      0.47242441	     -2.62954098	      2.87395238	    -16.34818793	     14.58217042	     14.58217042	     19.56996053	      4.12182586	     -3.24887934	     30.77732243	     -3.98388297	      2.37454475	     26.82720119	     26.82720119	      4.59498039	    -13.94304185	      5.68697772	     -7.41479272	      5.58512766	      4.30587590	     37.66121103	    -15.75281280	     -4.70740967	     82.37750810	     44.93551774	      0.00000000	      0.00000000	     -8.52595455	     -7.79686449	     -2.88802181	     36.19126621	     45.37930647	      0.00000000	      0.00000000
